<svg width="44" height="44" viewBox="0 0 44 44" fill="none" xmlns="http://www.w3.org/2000/svg">
<path d="M44 22C44 20.6177 43.8703 19.2342 43.6135 17.891C43.4977 17.283 42.9652 16.8436 42.3472 16.8436H22.0859C21.3734 16.8436 20.7969 17.4202 20.7969 18.1327V25.8671C20.7969 26.5796 21.3734 27.1561 22.0859 27.1561H32.4815C31.8338 28.4674 30.9412 29.6051 29.893 30.5623L37.1788 37.848C41.3709 33.8541 44 28.2338 44 22Z" fill="#DCD0BD"/>
<path d="M22 10.3125C24.529 10.3125 26.9347 11.1157 28.9564 12.6363C29.4674 13.0203 30.1888 12.9737 30.6419 12.5167L36.1431 7.01551C36.3987 6.75993 36.5359 6.4087 36.5195 6.04742C36.5032 5.68614 36.337 5.34875 36.06 5.11586C32.1237 1.81655 27.1298 0 22 0C14.4504 0 7.78092 3.83745 3.8382 9.66384L11.4048 17.2305C13.21 13.1642 17.2716 10.3125 22 10.3125Z" fill="#DCD0BD"/>
<path d="M22 44C26.921 44 31.4525 42.35 35.1142 39.6011L27.6917 32.1786C25.9951 33.1339 24.056 33.6875 22 33.6875C17.2716 33.6875 13.21 30.8358 11.4048 26.7695L3.8382 34.3362C7.78092 40.1625 14.4504 44 22 44Z" fill="#DCD0BD"/>
<path d="M10.5002 23.8567C10.4014 23.2484 10.3125 22.6357 10.3125 22C10.3125 21.3643 10.4014 20.7517 10.5002 20.1433L2.41141 12.0546C0.881031 15.0435 0 18.4178 0 22C0 25.5822 0.881031 28.9566 2.41149 31.9454L10.5002 23.8567Z" fill="#DCD0BD"/>
</svg>
