<svg width="110" height="110" viewBox="0 0 23 25" fill="none" xmlns="http://www.w3.org/2000/svg">
<path d="M11.5 23.6092C11.1725 23.6092 10.8569 23.4802 10.6108 23.246C9.6817 22.3629 8.78589 21.533 7.99555 20.801L7.99152 20.7972C5.67436 18.6508 3.67341 16.7973 2.28118 14.9714C0.72489 12.9301 0 10.9947 0 8.88042C0 6.82621 0.648032 4.93107 1.8246 3.54385C3.0152 2.14024 4.64888 1.36719 6.42522 1.36719C7.75287 1.36719 8.96874 1.82343 10.039 2.72312C10.5791 3.17726 11.0687 3.73306 11.5 4.38137C11.9315 3.73306 12.4209 3.17726 12.9612 2.72312C14.0314 1.82343 15.2473 1.36719 16.5749 1.36719C18.3511 1.36719 19.9849 2.14024 21.1755 3.54385C22.3521 4.93107 23 6.82621 23 8.88042C23 10.9947 22.2752 12.9301 20.7189 14.9712C19.3267 16.7973 17.3259 18.6506 15.0091 20.7968C14.2174 21.53 13.3202 22.3612 12.3889 23.2464C12.1431 23.4802 11.8272 23.6092 11.5 23.6092ZM6.42522 2.83165C5.02966 2.83165 3.74764 3.43704 2.81498 4.53644C1.86847 5.65243 1.34713 7.19509 1.34713 8.88042C1.34713 10.6586 1.95515 12.249 3.31842 14.0369C4.63607 15.7652 6.59596 17.5806 8.86521 19.6827L8.86942 19.6865C9.66275 20.4214 10.5621 21.2545 11.498 22.1441C12.4397 21.2528 13.3404 20.4184 14.1353 19.6823C16.4044 17.5802 18.3641 15.7652 19.6817 14.0369C21.0448 12.249 21.6528 10.6586 21.6528 8.88042C21.6528 7.19509 21.1315 5.65243 20.185 4.53644C19.2525 3.43704 17.9703 2.83165 16.5749 2.83165C15.5526 2.83165 14.614 3.18489 13.7852 3.88145C13.0466 4.50249 12.5321 5.28755 12.2305 5.83687C12.0754 6.11935 11.8023 6.28796 11.5 6.28796C11.1976 6.28796 10.9246 6.11935 10.7695 5.83687C10.468 5.28755 9.95351 4.50249 9.21476 3.88145C8.38599 3.18489 7.44737 2.83165 6.42522 2.83165Z" fill="#885809"/>
</svg>
