<svg width="160" height="44" viewBox="0 0 160 44" fill="none" xmlns="http://www.w3.org/2000/svg">
<path d="M50.1125 34.62C50.2058 35.1133 50.3592 35.46 50.5725 35.66C50.7858 35.8467 51.1458 35.9733 51.6525 36.04L51.6925 36.12L51.4525 37.06C51.2925 37.06 50.9992 37.0467 50.5725 37.02C50.1458 37.0067 49.7192 37 49.2925 37C48.6525 37 48.0258 37.02 47.4125 37.06C46.8125 37.1133 46.4258 37.1533 46.2525 37.18L46.1925 37.04L46.3725 36.12C46.8658 36.08 47.2325 36.0333 47.4725 35.98C47.7125 35.9133 47.8792 35.82 47.9725 35.7C48.0658 35.58 48.1125 35.4067 48.1125 35.18C48.1125 35.06 48.1058 34.94 48.0925 34.82C48.0792 34.7 48.0658 34.5933 48.0525 34.5L47.7525 32.54C47.4992 32.5267 46.8725 32.52 45.8725 32.52C45.4192 32.52 44.7458 32.5667 43.8525 32.66L43.0125 34.58C42.8525 34.9133 42.7725 35.1933 42.7725 35.42C42.7725 35.6467 42.8458 35.8133 42.9925 35.92C43.1392 36.0133 43.3792 36.06 43.7125 36.06H44.7125L44.7325 36.14L44.5125 37.12C44.3525 37.1067 43.9858 37.08 43.4125 37.04C42.8525 37.0133 42.3125 37 41.7925 37C41.2992 37 40.8392 37.0067 40.4125 37.02C39.9992 37.0333 39.7258 37.0467 39.5925 37.06L39.8725 35.98C40.2192 35.94 40.5125 35.82 40.7525 35.62C40.9925 35.4067 41.2325 35.04 41.4725 34.52L46.2725 24.34L48.2325 24L48.4325 24.04C48.4325 24.1333 48.6258 25.4933 49.0125 28.12C49.4125 30.7333 49.7792 32.9 50.1125 34.62ZM45.9525 31.46C46.3258 31.46 46.8792 31.4267 47.6125 31.36L46.8725 26.38H46.6725L44.4125 31.46H45.9525ZM56.6755 34.4C56.6355 34.72 56.6155 34.9867 56.6155 35.2C56.6155 35.5467 56.6955 35.7733 56.8555 35.88C57.0288 35.9733 57.3621 36.02 57.8555 36.02L57.8955 36.1L57.6155 37.08L55.3555 37.02C54.9288 37.0067 54.4555 37.0133 53.9355 37.04C53.4288 37.0667 53.0955 37.0867 52.9355 37.1L53.2355 36.04C53.8221 35.9733 54.2221 35.84 54.4355 35.64C54.6621 35.4267 54.8088 35.0333 54.8755 34.46L55.8755 26.28C55.9021 26.04 55.9155 25.8933 55.9155 25.84C55.9155 25.6 55.8688 25.44 55.7755 25.36C55.6955 25.2667 55.5488 25.22 55.3355 25.22C55.2021 25.22 55.0688 25.2267 54.9355 25.24C54.8021 25.2533 54.7155 25.26 54.6755 25.26L54.6155 25.16L54.8955 24.16C55.0555 24.1733 55.3555 24.1933 55.7955 24.22C56.2355 24.2333 56.6755 24.24 57.1155 24.24C57.4221 24.24 57.8288 24.2267 58.3355 24.2C58.8555 24.1733 59.2021 24.1533 59.3755 24.14C60.5888 24.14 61.5755 24.4 62.3355 24.92C63.1088 25.4267 63.4955 26.12 63.4955 27C63.4955 27.8933 63.2355 28.7 62.7155 29.42C62.1955 30.14 61.4355 30.7333 60.4355 31.2L61.9755 34.48C62.2688 35.0933 62.5688 35.5333 62.8755 35.8C63.1821 36.0533 63.5755 36.18 64.0555 36.18L64.1355 36.3L63.9155 37.1L62.0155 37.32C61.6421 37.32 61.2955 37.16 60.9755 36.84C60.6688 36.5067 60.4021 36.04 60.1755 35.44L58.7355 31.68H57.0555L56.6755 34.4ZM59.1355 30.54C59.6155 30.3667 60.1088 30.06 60.6155 29.62C61.1355 29.1667 61.3955 28.4267 61.3955 27.4C61.3955 25.9733 60.4021 25.26 58.4155 25.26C58.2821 25.26 58.1888 25.2933 58.1355 25.36C58.0955 25.4133 58.0555 25.5333 58.0155 25.72C57.7221 27.1733 57.4755 28.7133 57.2755 30.34L59.1355 30.54ZM70.3877 25.28C69.4277 25.32 68.761 25.3933 68.3877 25.5C68.0277 25.6067 67.7677 25.8067 67.6077 26.1C67.4477 26.3933 67.2677 26.9667 67.0677 27.82L65.8477 27.92C65.901 27.6933 66.0077 27.2 66.1677 26.44C66.3277 25.68 66.461 24.9267 66.5677 24.18L66.7877 24.02L68.4677 24.24H74.4677L76.2477 24.02L76.4277 24.18C76.3477 24.9267 76.2943 25.6667 76.2677 26.4C76.241 27.1333 76.2277 27.6067 76.2277 27.82L75.0277 27.92C75.0143 27.0267 74.961 26.4267 74.8677 26.12C74.7877 25.8133 74.5877 25.6067 74.2677 25.5C73.961 25.3933 73.361 25.32 72.4677 25.28C72.2677 26.2533 71.9743 28.02 71.5877 30.58C71.2143 33.14 71.0277 34.6 71.0277 34.96C71.0277 35.32 71.101 35.58 71.2477 35.74C71.3943 35.9 71.6277 35.98 71.9477 35.98C72.2277 35.98 72.461 35.9733 72.6477 35.96C72.8477 35.9467 72.9743 35.9333 73.0277 35.92L73.0677 36L72.7677 37.08C72.541 37.0667 72.121 37.0467 71.5077 37.02C70.9077 37.0067 70.3143 37 69.7277 37C69.3143 37 68.781 37.0133 68.1277 37.04C67.4877 37.0667 67.0677 37.0867 66.8677 37.1L67.1477 36.1C67.7743 36.0333 68.2143 35.9467 68.4677 35.84C68.7343 35.72 68.9277 35.52 69.0477 35.24C69.1677 34.9467 69.2743 34.4467 69.3677 33.74L70.3877 25.28ZM88.5766 37.24C88.3632 37.2133 87.9232 37.1667 87.2566 37.1C86.5899 37.0333 86.0432 37 85.6166 37C85.2032 37 84.7432 37.0267 84.2366 37.08C83.7432 37.1467 83.4166 37.1933 83.2566 37.22L83.5166 36.16C84.1032 36.0533 84.5099 35.8867 84.7366 35.66C84.9766 35.42 85.1299 35.02 85.1966 34.46L86.1966 26.32L86.2366 25.84C86.2366 25.6133 86.1899 25.46 86.0966 25.38C86.0166 25.2867 85.8766 25.24 85.6766 25.24C85.5432 25.24 85.4099 25.2467 85.2766 25.26C85.1432 25.2733 85.0566 25.28 85.0166 25.28L84.9566 25.16L85.2166 24.18C85.3766 24.1933 85.6699 24.2067 86.0966 24.22C86.5366 24.2333 86.9766 24.24 87.4166 24.24C87.7766 24.24 88.2766 24.2267 88.9166 24.2C89.5566 24.1733 89.9832 24.1533 90.1966 24.14C91.3432 24.14 92.3499 24.36 93.2166 24.8C94.0966 25.2267 94.7766 25.8333 95.2566 26.62C95.7366 27.4067 95.9766 28.3267 95.9766 29.38C95.9766 30.8067 95.6432 32.1267 94.9766 33.34C94.3232 34.54 93.4299 35.4933 92.2966 36.2C91.1766 36.8933 89.9366 37.24 88.5766 37.24ZM89.0166 25.36C88.7766 25.36 88.6099 25.3933 88.5166 25.46C88.4366 25.5133 88.3832 25.6333 88.3566 25.82L88.1566 27.02C88.0899 27.46 87.8766 28.7733 87.5166 30.96C87.1699 33.1333 86.9966 34.38 86.9966 34.7C86.9966 35.2067 87.1299 35.5467 87.3966 35.72C87.6766 35.8933 88.1899 35.98 88.9366 35.98C89.8966 35.98 90.7299 35.72 91.4366 35.2C92.1566 34.68 92.7099 33.9467 93.0966 33C93.4966 32.0533 93.6966 30.96 93.6966 29.72C93.6966 28.2933 93.2966 27.2133 92.4966 26.48C91.7099 25.7333 90.5499 25.36 89.0166 25.36ZM100.954 35.12C100.954 35.4533 101.041 35.6667 101.214 35.76C101.387 35.84 101.734 35.88 102.254 35.88C103.241 35.88 103.954 35.8267 104.394 35.72C104.834 35.6133 105.161 35.4067 105.374 35.1C105.587 34.78 105.787 34.2467 105.974 33.5L107.154 33.38L107.234 33.52C107.167 33.72 107.027 34.1667 106.814 34.86C106.614 35.54 106.434 36.2533 106.274 37L106.114 37.14C105.701 37.1267 104.834 37.1 103.514 37.06C102.194 37.02 101.107 37 100.254 37C99.6007 37 98.9807 37.0267 98.3941 37.08C97.8207 37.1333 97.4541 37.1733 97.2941 37.2L97.5541 36.14C98.1274 36.06 98.5274 35.9 98.7541 35.66C98.9941 35.42 99.1474 35.0133 99.2141 34.44L100.234 26.3C100.261 26.06 100.274 25.9 100.274 25.82C100.274 25.5933 100.227 25.44 100.134 25.36C100.054 25.2667 99.9007 25.22 99.6741 25.22C99.5541 25.22 99.4274 25.2267 99.2941 25.24C99.1741 25.2533 99.0941 25.26 99.0541 25.26L98.9941 25.16L99.2541 24.18C99.4541 24.1933 99.8341 24.2067 100.394 24.22C100.967 24.2333 101.594 24.24 102.274 24.24C104.914 24.24 106.854 24.16 108.094 24L108.174 24.14C108.147 24.22 108.087 24.4133 107.994 24.72C107.914 25.0133 107.807 25.4267 107.674 25.96C107.541 26.48 107.421 27.0133 107.314 27.56L106.054 27.66C106.081 27.58 106.114 27.4067 106.154 27.14C106.207 26.86 106.234 26.62 106.234 26.42C106.234 26.1267 106.161 25.9133 106.014 25.78C105.881 25.6467 105.641 25.56 105.294 25.52C104.947 25.48 104.387 25.46 103.614 25.46C103.201 25.46 102.914 25.4733 102.754 25.5C102.607 25.5267 102.501 25.5867 102.434 25.68C102.381 25.76 102.334 25.9267 102.294 26.18L101.734 29.82L103.634 29.84C103.914 29.84 104.321 29.8133 104.854 29.76C105.401 29.7067 105.761 29.6667 105.934 29.64L106.034 29.76L105.594 31.12C105.421 31.1067 105.081 31.0933 104.574 31.08C104.067 31.0667 103.534 31.06 102.974 31.06C102.521 31.06 102.027 31.1067 101.494 31.2C101.401 31.9333 101.301 32.6 101.194 33.2C101.034 34.2 100.954 34.84 100.954 35.12ZM112.8 37.24C112.24 37.24 111.713 37.1867 111.22 37.08C110.727 36.9733 110.333 36.8667 110.04 36.76C109.76 36.6533 109.58 36.58 109.5 36.54L109.4 36.3C109.427 36.22 109.48 36.02 109.56 35.7C109.653 35.38 109.753 34.9667 109.86 34.46C109.967 33.94 110.053 33.4067 110.12 32.86L111.28 32.74C111.213 33.34 111.18 33.8067 111.18 34.14C111.18 34.86 111.327 35.3533 111.62 35.62C111.913 35.8733 112.447 36 113.22 36C114.007 36 114.647 35.8067 115.14 35.42C115.633 35.02 115.88 34.5067 115.88 33.88C115.88 33.4267 115.7 33.0333 115.34 32.7C114.993 32.3533 114.473 31.9867 113.78 31.6C113.06 31.1867 112.5 30.8467 112.1 30.58C111.713 30.3133 111.373 29.9733 111.08 29.56C110.787 29.1333 110.64 28.6467 110.64 28.1C110.64 27.34 110.853 26.6467 111.28 26.02C111.72 25.3933 112.32 24.9 113.08 24.54C113.84 24.18 114.687 24 115.62 24C116.153 24 116.66 24.04 117.14 24.12C117.62 24.1867 118 24.26 118.28 24.34C118.573 24.42 118.76 24.4733 118.84 24.5L118.9 24.66C118.847 24.8467 118.727 25.2667 118.54 25.92C118.367 26.5733 118.207 27.2867 118.06 28.06L117.02 28.16L116.88 28.04C116.907 27.9467 116.947 27.76 117 27.48C117.053 27.2 117.08 26.9533 117.08 26.74C117.08 26.2333 116.933 25.8733 116.64 25.66C116.347 25.4467 115.847 25.34 115.14 25.34C114.46 25.34 113.887 25.5267 113.42 25.9C112.953 26.26 112.72 26.7067 112.72 27.24C112.72 27.6133 112.84 27.9467 113.08 28.24C113.333 28.5333 113.693 28.8333 114.16 29.14L115.1 29.7C115.74 30.0467 116.26 30.3667 116.66 30.66C117.06 30.94 117.393 31.28 117.66 31.68C117.94 32.0667 118.08 32.5133 118.08 33.02C118.08 33.8333 117.86 34.56 117.42 35.2C116.98 35.84 116.36 36.34 115.56 36.7C114.76 37.06 113.84 37.24 112.8 37.24ZM125.174 26.22C124.84 28.1667 124.534 30.0467 124.254 31.86C123.974 33.6733 123.834 34.7667 123.834 35.14C123.834 35.46 123.887 35.68 123.994 35.8C124.1 35.92 124.28 35.98 124.534 35.98C124.76 35.98 124.96 35.9733 125.134 35.96C125.307 35.9467 125.42 35.9333 125.474 35.92L125.534 36.02L125.234 37.06C125.047 37.0467 124.687 37.0333 124.154 37.02C123.634 37.0067 123.107 37 122.574 37C122.147 37 121.674 37.0267 121.154 37.08C120.634 37.1467 120.294 37.1933 120.134 37.22L120.414 36.18C121.014 36.06 121.427 35.8867 121.654 35.66C121.894 35.42 122.04 35.02 122.094 34.46L123.114 26.3C123.14 26.06 123.154 25.9133 123.154 25.86C123.154 25.62 123.107 25.4533 123.014 25.36C122.92 25.2667 122.76 25.22 122.534 25.22C122.387 25.22 122.234 25.2267 122.074 25.24C121.927 25.2533 121.827 25.26 121.774 25.26C121.774 25.2467 121.767 25.2333 121.754 25.22C121.74 25.1933 121.734 25.1733 121.734 25.16L121.994 24.18L122.474 24.2C123.194 24.2267 123.847 24.24 124.434 24.24C124.794 24.24 125.247 24.22 125.794 24.18C126.34 24.1267 126.7 24.0867 126.874 24.06L126.634 25.1C126.114 25.1667 125.754 25.2733 125.554 25.42C125.367 25.5667 125.24 25.8333 125.174 26.22ZM137.186 30.8C137.533 30.8 137.886 30.7867 138.246 30.76C138.606 30.7333 138.84 30.7133 138.946 30.7L138.986 31.26C138.56 31.54 138.28 32.1133 138.146 32.98C138.08 33.42 138.013 33.9133 137.946 34.46C137.88 34.9933 137.846 35.3467 137.846 35.52L137.866 36.16L137.706 36.36C137.706 36.3733 137.493 36.46 137.066 36.62C136.653 36.7667 136.126 36.9067 135.486 37.04C134.846 37.1733 134.146 37.24 133.386 37.24C132.333 37.24 131.413 37.0267 130.626 36.6C129.84 36.16 129.233 35.54 128.806 34.74C128.38 33.94 128.166 33 128.166 31.92C128.166 30.3867 128.48 29.02 129.106 27.82C129.746 26.62 130.626 25.6867 131.746 25.02C132.88 24.34 134.16 24 135.586 24C136.066 24 136.573 24.0333 137.106 24.1C137.653 24.1667 138.12 24.24 138.506 24.32C138.893 24.3867 139.14 24.4333 139.246 24.46L139.306 24.64C139.28 24.72 139.213 24.9133 139.106 25.22C139 25.5267 138.873 25.9333 138.726 26.44C138.593 26.9467 138.473 27.4867 138.366 28.06L137.066 28.16C137.08 28.0667 137.113 27.8867 137.166 27.62C137.22 27.34 137.246 27.12 137.246 26.96C137.246 25.9333 136.46 25.42 134.886 25.42C134.006 25.42 133.233 25.6667 132.566 26.16C131.9 26.64 131.38 27.3333 131.006 28.24C130.646 29.1333 130.466 30.1933 130.466 31.42C130.466 32.8333 130.76 33.9467 131.346 34.76C131.933 35.56 132.746 35.96 133.786 35.96C134.2 35.96 134.58 35.9133 134.926 35.82C135.286 35.7133 135.566 35.6067 135.766 35.5C135.98 35.3933 136.113 35.32 136.166 35.28L136.426 33.02C136.44 32.9133 136.446 32.78 136.446 32.62C136.446 32.3667 136.386 32.2 136.266 32.12C136.146 32.0267 135.92 31.98 135.586 31.98H134.386L134.346 31.86L134.666 30.74C134.68 30.74 134.94 30.7533 135.446 30.78C135.966 30.7933 136.546 30.8 137.186 30.8ZM151.961 26.1C152.015 25.5267 151.835 25.24 151.421 25.24L150.721 25.26L150.681 25.16L150.961 24.16C151.108 24.1733 151.381 24.1933 151.781 24.22C152.195 24.2333 152.615 24.24 153.041 24.24C153.401 24.24 153.801 24.22 154.241 24.18C154.681 24.1267 154.968 24.0933 155.101 24.08L154.881 25.14C154.441 25.2067 154.101 25.34 153.861 25.54C153.635 25.7267 153.495 26.0133 153.441 26.4L151.841 37.44L150.661 37.72C149.848 36.0267 149.048 34.4133 148.261 32.88C147.488 31.3467 146.848 30.1067 146.341 29.16C145.835 28.2133 145.515 27.62 145.381 27.38H145.261L144.221 35.16C144.208 35.2267 144.201 35.32 144.201 35.44C144.201 35.64 144.241 35.78 144.321 35.86C144.415 35.94 144.561 35.98 144.761 35.98L145.661 35.96L145.721 36.06L145.421 37.08C145.275 37.0667 144.988 37.0467 144.561 37.02C144.135 37.0067 143.688 37 143.221 37C142.848 37 142.448 37.02 142.021 37.06C141.595 37.1133 141.315 37.1467 141.181 37.16L141.441 36.12C141.841 36.0667 142.148 35.9467 142.361 35.76C142.575 35.56 142.708 35.26 142.761 34.86L144.041 26.36C144.055 26.2933 144.061 26.2 144.061 26.08C144.061 25.7867 143.948 25.5733 143.721 25.44C143.508 25.3067 143.121 25.2067 142.561 25.14L142.501 25L142.741 24.14C142.875 24.1533 143.148 24.1733 143.561 24.2C143.975 24.2267 144.328 24.24 144.621 24.24C144.928 24.24 145.228 24.2333 145.521 24.22C145.828 24.1933 146.028 24.1733 146.121 24.16C146.815 25.6 147.515 27.0133 148.221 28.4C148.941 29.7867 149.535 30.9267 150.001 31.82C150.481 32.7133 150.788 33.28 150.921 33.52H151.041L151.961 26.1Z" fill="#AA937E"/>
<g clip-path="url(#clip0_1_62)">
<path d="M27.4532 15.6405C27.4847 15.6852 27.5006 15.7466 27.5494 15.7195C27.6142 15.6834 27.6834 15.6787 27.7549 15.684C27.8422 15.6902 27.9188 15.7084 27.9718 15.6237C28.1236 15.3818 28.0958 15.1023 27.99 14.8485C27.9118 14.8976 27.8837 15.0219 27.8267 15.0933C27.7926 15.1361 27.7234 15.1234 27.7334 15.0567C27.7421 14.9993 27.7807 14.9467 27.8114 14.9007C27.8394 14.8587 27.8707 14.8172 27.8922 14.7707C27.9159 14.7196 27.8372 14.6056 27.8077 14.565C27.7182 14.4411 27.6061 14.3372 27.5163 14.2125C27.4423 14.3819 27.324 14.5395 27.3756 14.736C27.392 14.7986 27.4299 14.8952 27.377 14.9516C27.3267 15.0054 27.2778 14.9145 27.2722 14.8702C27.2595 14.7726 27.2895 14.6806 27.2575 14.583C27.2192 14.4666 27.1232 14.4234 27.0215 14.3868C26.8478 14.3243 26.6635 14.3088 26.4911 14.2405C26.4926 14.4254 26.4497 14.6044 26.4411 14.7884C26.4367 14.8858 26.4306 14.9972 26.4876 15.0794C26.5539 15.1752 26.6541 15.1909 26.7516 15.2281C26.7936 15.2441 26.8615 15.2922 26.8377 15.3508C26.8058 15.4278 26.686 15.3518 26.6514 15.3207C26.4926 15.1772 26.3055 15.2461 26.1191 15.2645C26.1924 15.3874 26.2462 15.5175 26.3118 15.6447C26.3501 15.7192 26.4031 15.7799 26.464 15.8338C26.5177 15.8334 26.5722 15.8104 26.6234 15.7951C26.6697 15.7811 26.719 15.7651 26.7676 15.767C26.8208 15.769 26.8605 15.8355 26.8012 15.8692C26.7163 15.9175 26.5931 15.8896 26.517 15.9573C26.6958 16.1415 26.9203 16.2652 27.1742 16.209C27.2682 16.1882 27.2902 16.1508 27.3166 16.0546C27.3387 15.9749 27.3566 15.8947 27.41 15.8313C27.4311 15.806 27.4652 15.8011 27.4466 15.7704C27.4316 15.7456 27.4164 15.7209 27.4014 15.6963C27.2356 15.4242 27.0698 15.1522 26.9039 14.8802C26.9571 14.9531 27.0183 15.0239 27.065 15.0901C27.1946 15.2737 27.324 15.457 27.4532 15.6405Z" fill="#AA937E"/>
<path d="M39.3832 6.0748C39.3506 6.12229 39.2286 6.24963 39.1704 6.16779C39.1262 6.10538 39.1941 6.02751 39.2396 5.99561C39.3454 5.92144 39.46 5.87191 39.5132 5.73796C39.5588 5.62251 39.5219 5.4924 39.4906 5.37801C39.4316 5.16237 39.3323 4.96291 39.2848 4.74304C39.0985 4.87705 38.8838 4.95221 38.6942 5.07955C38.583 5.15411 38.4807 5.23495 38.4665 5.38495C38.4545 5.51063 38.5147 5.61049 38.526 5.73037C38.5311 5.78472 38.4973 5.90764 38.4232 5.85929C38.3454 5.80857 38.3646 5.68202 38.3673 5.60283C38.3763 5.35384 38.1935 5.20286 38.0602 5.02466C37.9871 5.20048 37.8817 5.35813 37.8085 5.53249C37.7845 5.58969 37.7216 5.74913 37.7632 5.80249C37.8011 5.85097 37.8494 5.8904 37.894 5.93181C37.9426 5.97705 38.0026 6.02758 38.0282 6.09303C38.0581 6.16905 37.9792 6.20564 37.9271 6.16522C37.8405 6.09792 37.7738 5.95882 37.668 5.92468C37.6102 6.25854 37.6517 6.59888 37.8967 6.83962C37.9824 6.92389 38.0684 6.87865 38.1704 6.8445C38.2538 6.81663 38.3374 6.80065 38.4239 6.8237C38.4891 6.84107 38.4915 6.76327 38.5169 6.70039C38.6214 6.44294 38.7259 6.18543 38.8304 5.92798C38.8682 5.83479 38.9218 5.73215 38.9655 5.62932C38.8413 6.00321 38.7172 6.3769 38.5931 6.75078C38.5903 6.75904 38.5876 6.76736 38.5847 6.77562C38.5456 6.74491 38.4171 6.85157 38.378 6.93651C38.3164 7.07012 38.2548 7.20347 38.1808 7.32962C38.0262 7.59215 37.8434 7.83573 37.6479 8.06933C37.5768 8.1542 37.4925 8.1332 37.4599 8.02469C37.327 7.58086 37.181 7.14072 37.175 6.72985C37.1733 6.61585 37.1527 6.61004 37.128 6.72093C36.9706 7.42367 37.1859 8.32606 36.768 8.88137C36.3383 9.45215 35.4832 9.7763 34.7156 10.0148C33.1682 10.4956 31.2726 10.3814 29.5692 10.615C26.3163 11.0614 24.839 13.2488 24.4442 16.0014C24.428 16.1142 24.3652 16.1318 24.2946 16.0465C23.9162 15.5898 23.3697 15.2052 23.0208 14.7325C22.9548 14.643 22.9442 14.649 22.9888 14.7525C23.2271 15.3067 23.4755 15.8615 23.7631 16.4211C23.9091 16.7034 24.1232 16.99 24.2191 17.2719C24.3325 17.6037 24.2336 17.8917 24.1814 18.1652C24.1322 18.4247 24.0714 18.6793 23.9931 18.9245C23.9588 19.0324 23.9116 19.0969 23.8929 19.0709C23.8743 19.0449 23.8728 19.0511 23.8879 19.0859C23.9029 19.1207 23.8836 19.2348 23.8389 19.3384C23.756 19.5304 23.6589 19.7138 23.5423 19.8851C22.9847 20.7068 22.0402 21.2344 21.4602 22.0342C21.3949 22.1244 21.3511 22.1093 21.3519 21.9953C21.3529 21.856 21.3487 21.7172 21.3386 21.5787C21.2914 20.9223 20.9892 20.3507 20.6559 19.7889C20.5988 19.6926 20.6067 19.5435 20.6734 19.4547C20.7946 19.294 20.9136 19.1334 21.0315 18.9725C21.0971 18.8828 21.088 18.8747 21.0051 18.946C20.873 19.0599 20.7253 19.1637 20.5699 19.263C20.4784 19.3214 20.3563 19.2887 20.3003 19.1917C20.1571 18.9441 20.0247 18.6926 19.9192 18.4319C20.0584 18.2119 20.1975 17.9917 20.3367 17.7717C20.2561 17.7098 20.248 17.6642 20.1893 17.7474C20.1161 17.8513 20.0428 17.955 19.9696 18.0589C19.93 18.1151 19.8904 18.1711 19.8509 18.2273C19.8349 18.1652 19.823 18.1064 19.8188 18.067C19.8139 18.0211 19.8096 17.9752 19.806 17.9293C19.7973 17.8202 19.7934 17.7112 19.7919 17.6023C19.8091 17.6009 19.8268 17.5996 19.8445 17.5985C19.9627 17.5912 20.0775 17.5998 20.1839 17.6605C20.2642 17.7062 20.2912 17.605 20.344 17.5314C20.5604 17.2299 20.7767 16.9285 20.9932 16.6268C21.0715 16.5177 21.1734 16.4018 21.2624 16.282C20.9846 16.7295 20.7067 17.1767 20.4287 17.6241C20.4034 17.6649 20.3782 17.7056 20.3529 17.7462C20.3216 17.7965 20.378 17.8052 20.4127 17.8474C20.5 17.9534 20.5289 18.0863 20.5641 18.2185C20.6067 18.3779 20.6424 18.4404 20.7976 18.4761C21.2172 18.573 21.5901 18.3716 21.8883 18.0701C21.7637 17.9569 21.5592 18.001 21.4194 17.92C21.3219 17.8633 21.3882 17.7541 21.4762 17.7515C21.5567 17.749 21.6382 17.7763 21.7146 17.8002C21.7989 17.8264 21.8889 17.8655 21.9779 17.8667C22.0792 17.7782 22.1679 17.6787 22.2323 17.556C22.3423 17.3469 22.4332 17.1322 22.556 16.9301C22.2484 16.8968 21.9396 16.7801 21.6749 17.015C21.6174 17.0659 21.4178 17.19 21.3665 17.0621C21.3277 16.9645 21.4407 16.8863 21.5105 16.8604C21.6722 16.8003 21.8383 16.7757 21.9494 16.6182C22.0449 16.4828 22.0362 16.2987 22.0302 16.1374C22.0187 15.8333 21.9499 15.5361 21.9549 15.2306C21.669 15.3409 21.3638 15.364 21.0755 15.4644C20.9068 15.5235 20.7473 15.5934 20.6824 15.7853C20.6281 15.9462 20.6764 16.0988 20.6543 16.2601C20.6441 16.3335 20.5622 16.483 20.4796 16.3933C20.3931 16.2991 20.457 16.1397 20.4849 16.0366C20.5555 15.7767 20.4451 15.5563 20.3367 15.3343C20.5276 14.9794 20.7696 14.6396 21.0667 14.3221C21.2971 14.0772 21.5569 13.846 21.8379 13.6271C22.0109 13.4919 22.0296 13.3733 22.3324 13.4746C22.5323 13.5415 22.7278 13.6114 22.9478 13.5993C23.6141 13.5657 24.1434 13.2398 24.471 12.8816C24.5455 12.8002 24.5182 12.7599 24.4174 12.7971C23.9524 12.9685 23.2751 13.1569 22.7132 13.1397C22.6069 13.1365 22.6023 13.0941 22.7021 13.0542C25.2391 12.042 27.282 10.2487 28.1517 8.3639C28.1625 8.34045 28.171 8.31661 28.1813 8.29317C28.3612 8.20929 28.5412 8.12528 28.7213 8.0414C28.6909 7.96036 28.704 7.92476 28.629 7.95488C28.5354 7.99246 28.4417 8.03004 28.3481 8.06768C28.3192 8.07918 28.2903 8.09093 28.2613 8.10242C28.3194 7.9595 28.3721 7.81519 28.4187 7.66969C28.4294 7.67576 28.4394 7.68164 28.4503 7.68805C28.5356 7.73877 28.6118 7.79901 28.6608 7.8916C28.6978 7.96135 28.7583 7.90356 28.8254 7.87747C29.0998 7.76995 29.3744 7.66242 29.649 7.5549C29.7484 7.51593 29.8669 7.48357 29.9782 7.44216C29.6007 7.622 29.2235 7.80211 28.8461 7.98196C28.8118 7.99833 28.7775 8.01471 28.743 8.03109C28.7006 8.0513 28.7363 8.08406 28.743 8.12977C28.7602 8.24475 28.7256 8.35063 28.6957 8.4594C28.6597 8.59057 28.6589 8.65081 28.7522 8.74902C29.0042 9.01439 29.3463 9.05052 29.6778 8.98163C29.6376 8.84406 29.4772 8.77814 29.4133 8.65563C29.3687 8.57016 29.4599 8.52545 29.5221 8.56528C29.5791 8.60167 29.6246 8.659 29.6679 8.71177C29.7158 8.76976 29.7622 8.8395 29.8237 8.88236C29.9307 8.86863 30.0333 8.84135 30.1285 8.7864C30.2912 8.69281 30.4427 8.58654 30.6111 8.50385C30.4107 8.3353 30.244 8.1083 29.9633 8.14674C29.9022 8.155 29.7124 8.14714 29.7294 8.03393C29.7424 7.94761 29.8533 7.94662 29.9125 7.96161C30.0497 7.99615 30.1754 8.05758 30.3175 8.00038C30.4397 7.95124 30.5093 7.81909 30.5714 7.7041C30.6886 7.487 30.7628 7.24792 30.892 7.03776C30.6477 6.97931 30.426 6.85118 30.1841 6.78513C30.0425 6.74636 29.9028 6.71988 29.7788 6.82271C29.6746 6.90903 29.6456 7.03776 29.564 7.1396C29.5268 7.1859 29.4082 7.25115 29.3878 7.1497C29.3663 7.04337 29.4763 6.96253 29.5384 6.90395C29.7328 6.72001 29.7065 6.44598 29.7384 6.19355C29.5494 6.26528 29.3494 6.2954 29.1616 6.36613C29.1001 6.38938 28.9311 6.45747 28.923 6.53468C28.9157 6.60502 28.923 6.67694 28.9259 6.74728C28.9293 6.82429 28.9373 6.91504 28.9076 6.98756C28.873 7.07184 28.7848 7.03161 28.7753 6.95566C28.7596 6.82898 28.8131 6.6642 28.7576 6.54617C28.7214 6.57147 28.6864 6.59815 28.6525 6.62622C28.6805 6.38799 28.6834 6.14666 28.7001 5.90671C28.7186 5.6424 28.7061 5.5029 28.6816 5.43422C28.6437 5.32775 28.5333 5.53104 28.5296 5.64497C28.5246 5.79391 28.5196 5.94271 28.5003 6.09019C28.46 6.39757 28.3865 6.69993 28.2979 6.99905C28.2657 7.10777 28.1808 7.1256 28.1095 7.04086C27.8509 6.73368 27.5846 6.43337 27.4139 6.10954C27.4636 6.09376 27.5153 6.09217 27.568 6.096C27.6555 6.10228 27.732 6.12044 27.785 6.03577C27.9369 5.79384 27.9089 5.51433 27.8031 5.26052C27.7251 5.30965 27.6969 5.43389 27.64 5.50528C27.6059 5.54815 27.5367 5.5354 27.5467 5.46869C27.5553 5.4113 27.594 5.35873 27.6247 5.31269C27.6526 5.27062 27.6839 5.22921 27.7055 5.18271C27.7291 5.13159 27.6503 5.0176 27.621 4.97698C27.5314 4.85314 27.4194 4.74925 27.3295 4.62455C27.2556 4.7939 27.1371 4.95155 27.1889 5.14797C27.2053 5.21065 27.2432 5.30721 27.1903 5.36361C27.14 5.41738 27.0911 5.32643 27.0854 5.28218C27.0728 5.18456 27.1028 5.09263 27.0708 4.99501C27.0325 4.87857 26.9364 4.83537 26.8348 4.79878C26.6611 4.73637 26.4767 4.72078 26.3044 4.65249C26.3059 4.83742 26.2629 5.01647 26.2544 5.20035C26.2498 5.29777 26.2438 5.40912 26.3007 5.49141C26.3672 5.58718 26.4673 5.60297 26.5649 5.64015C26.6069 5.65613 26.6748 5.70421 26.6509 5.7628C26.6192 5.83981 26.4993 5.76379 26.4647 5.73268C26.3059 5.58923 26.1188 5.65811 25.9324 5.67648C26.0056 5.79932 26.0595 5.9295 26.1249 6.05664C26.1632 6.1312 26.2164 6.19183 26.2772 6.24579C26.3309 6.2454 26.3855 6.22235 26.4366 6.20703C26.483 6.19309 26.5323 6.17711 26.5809 6.17896C26.6341 6.18094 26.6737 6.24745 26.6145 6.2812C26.5296 6.32947 26.4062 6.3016 26.3302 6.3693C26.509 6.55344 26.7336 6.67708 26.9874 6.62094C27.0815 6.60013 27.1034 6.56275 27.1298 6.46652C27.152 6.38687 27.1698 6.30669 27.2233 6.24322C27.2444 6.21799 27.2785 6.2129 27.2599 6.18239C27.2447 6.15756 27.2297 6.13286 27.2146 6.10822C27.0489 5.83617 26.8829 5.5642 26.7172 5.29215C26.7704 5.36513 26.8315 5.43587 26.8783 5.50218C27.0077 5.68566 27.1369 5.8692 27.2663 6.05248C27.2912 6.08788 27.307 6.13193 27.3363 6.13596C27.3389 6.14706 27.3426 6.15815 27.3453 6.16931C27.3218 6.14507 27.3109 6.16647 27.2693 6.19778C27.3265 6.28998 27.3836 6.38192 27.4406 6.47405C27.6391 7.03023 27.937 7.58964 27.8063 8.12627C27.6331 8.83587 26.9778 9.50723 26.369 10.0626C26.0318 10.3702 25.6524 10.6479 25.2504 10.9094C25.2107 10.8666 25.1711 10.8239 25.1312 10.7811C25.0865 10.8263 25.0597 10.8261 25.0999 10.8743C25.1239 10.903 25.1478 10.9317 25.172 10.9601C25.1066 11.0022 25.0406 11.0436 24.9741 11.0848C24.9743 11.0836 24.9743 11.0824 24.9745 11.0812C24.9843 11.0032 25.0028 10.9296 25.05 10.8674C25.0855 10.8205 25.0311 10.791 24.9957 10.7477C24.8503 10.571 24.7045 10.3942 24.5591 10.2174C24.5065 10.1535 24.4528 10.0732 24.3953 10.0011C24.6163 10.2351 24.8372 10.4692 25.0583 10.7034C25.0785 10.7246 25.0985 10.7461 25.1187 10.7673C25.1436 10.7935 25.1553 10.7579 25.1832 10.7404C25.2538 10.6961 25.3326 10.6931 25.4118 10.6856C25.5074 10.6767 25.547 10.6609 25.5857 10.564C25.6904 10.302 25.6204 10.0353 25.4844 9.8051C25.4054 9.87299 25.4061 10.0114 25.3435 10.0929C25.2997 10.1497 25.2456 10.0935 25.2545 10.0359C25.2628 9.98309 25.2879 9.93316 25.3103 9.88627C25.3352 9.83429 25.368 9.78033 25.3793 9.72254C25.341 9.64593 25.2953 9.57645 25.2331 9.51984C25.1273 9.42348 25.0164 9.33875 24.9162 9.23492C24.8609 9.43161 24.758 9.61891 24.86 9.81917C24.8821 9.86282 24.9289 10.0073 24.8503 10.0257C24.7903 10.0394 24.7591 9.95661 24.7527 9.90806C24.7378 9.79546 24.7435 9.6843 24.6672 9.59335C24.6017 9.51515 24.4962 9.49897 24.404 9.48385C24.2299 9.45512 24.0531 9.46483 23.8801 9.42546C23.9088 9.62492 23.8858 9.82643 23.9087 10.0263C23.922 10.1433 23.943 10.2555 24.0442 10.3206C24.1291 10.3751 24.2213 10.3616 24.3104 10.3952C24.3507 10.4105 24.426 10.4817 24.3653 10.5247C24.3015 10.57 24.2187 10.5095 24.1634 10.479C23.99 10.3832 23.8179 10.4782 23.644 10.5233C23.7427 10.6456 23.8169 10.7875 23.9148 10.9091C23.9469 10.949 24.0376 11.0573 24.0905 11.0421C24.1384 11.0283 24.1837 11.0031 24.2287 10.9816C24.2782 10.958 24.3354 10.9273 24.391 10.9295C24.4556 10.9322 24.4534 11.0095 24.4063 11.0374C24.3278 11.0841 24.2053 11.0889 24.1433 11.1629C24.2655 11.2567 24.4008 11.3236 24.5415 11.345C23.6678 11.8551 22.7374 12.3266 21.9065 12.8729C21.4072 13.2011 20.9819 13.5555 20.6226 13.9309C20.5464 14.0105 20.4087 14.1166 20.3147 14.1704C20.2717 14.1951 20.2297 14.2203 20.1885 14.2464C20.0971 14.3046 20.0421 14.2674 20.0588 14.1546C20.2072 13.1469 20.195 12.1645 19.9746 11.2506C20.0354 11.1546 20.096 11.0586 20.1567 10.9626C20.0903 10.9116 20.0837 10.8741 20.0354 10.9425C20.0013 10.991 19.9671 11.0394 19.933 11.0879C19.9086 10.9981 19.8822 10.909 19.8538 10.8209C19.9149 10.8255 19.9743 10.8387 20.0309 10.871C20.0971 10.9086 20.1192 10.8252 20.1628 10.7648C20.3411 10.5165 20.5191 10.2681 20.6974 10.0198C20.7619 9.93012 20.8458 9.83449 20.919 9.73588C20.6902 10.1044 20.4614 10.4728 20.2326 10.8412C20.2118 10.8747 20.191 10.9081 20.1702 10.9418C20.1444 10.9832 20.191 10.9905 20.2194 11.0251C20.2913 11.1124 20.315 11.2217 20.3441 11.3306C20.3791 11.462 20.4086 11.5134 20.5365 11.5428C20.8819 11.6225 21.189 11.4569 21.4345 11.2084C21.3319 11.1152 21.1635 11.1514 21.0484 11.0847C20.968 11.038 21.0228 10.948 21.0952 10.9458C21.1616 10.9438 21.2286 10.9662 21.2916 10.9858C21.361 11.0075 21.4352 11.0396 21.5083 11.0406C21.5919 10.9678 21.6647 10.8857 21.7179 10.7847C21.8084 10.6123 21.8833 10.4356 21.9844 10.2693C21.7309 10.2419 21.4768 10.1458 21.2588 10.3391C21.2115 10.3812 21.0471 10.4832 21.0049 10.3779C20.9728 10.2974 21.066 10.2329 21.1234 10.2117C21.2565 10.1622 21.3933 10.142 21.4848 10.0123C21.5634 9.90073 21.5563 9.74916 21.5514 9.61634C21.542 9.36576 21.4852 9.12119 21.4893 8.86955C21.2539 8.9605 21.0025 8.97932 20.7652 9.06214C20.6262 9.11062 20.4949 9.16841 20.4415 9.32646C20.3968 9.45902 20.4365 9.58457 20.4183 9.71752C20.41 9.77795 20.3425 9.90106 20.2745 9.82729C20.2032 9.74969 20.2559 9.61852 20.2789 9.53345C20.3513 9.26669 20.1919 9.05025 20.0929 8.81863C19.9692 8.98758 19.8152 9.12766 19.6919 9.29522C19.6515 9.35017 19.5429 9.50439 19.5746 9.57433C19.6034 9.638 19.6457 9.6946 19.6832 9.7522C19.7245 9.81527 19.7766 9.88739 19.7879 9.96559C19.8009 10.0565 19.7062 10.0731 19.6602 10.0143C19.5834 9.91625 19.5465 9.74652 19.4406 9.67875C19.4255 9.71435 19.4122 9.75048 19.3995 9.78687C18.8699 8.85839 18.0389 8.04939 16.8379 7.42228C16.8251 7.27354 16.8122 7.12481 16.7994 6.97581C16.7248 6.98109 16.6996 6.95863 16.7026 7.03723C16.7064 7.13544 16.71 7.23365 16.7138 7.33166C16.7141 7.34038 16.7143 7.34883 16.7147 7.35755C16.7117 7.35617 16.709 7.35451 16.706 7.35313C16.5953 7.29798 16.483 7.24422 16.3699 7.19145C16.391 7.17143 16.4121 7.14984 16.4345 7.12738C16.5002 7.06233 16.5709 7.00856 16.6603 6.98934C16.7276 6.97481 16.6981 6.90183 16.696 6.83169C16.6873 6.54472 16.6788 6.25755 16.6701 5.97051C16.6669 5.86662 16.6747 5.74662 16.673 5.63097C16.7109 6.03478 16.749 6.43858 16.7869 6.84239C16.7903 6.87918 16.7939 6.91577 16.7973 6.95249C16.8016 6.99793 16.8384 6.97415 16.8775 6.98082C16.9758 6.9978 17.0521 7.06048 17.1318 7.11946C17.228 7.19059 17.2766 7.20882 17.3834 7.14997C17.6715 6.99093 17.7992 6.6821 17.8382 6.35292C17.7149 6.35087 17.6152 6.48165 17.4974 6.50608C17.4152 6.52306 17.4049 6.42524 17.4551 6.37855C17.5011 6.33588 17.5607 6.30986 17.616 6.28456C17.6769 6.25649 17.7469 6.23305 17.7993 6.1882C17.8189 6.08451 17.8261 5.98101 17.8087 5.87633C17.7793 5.69787 17.7365 5.52589 17.7176 5.34499C17.5232 5.48369 17.2908 5.57397 17.2414 5.84707C17.2306 5.90645 17.1697 6.08127 17.0825 6.0328C17.0161 5.99581 17.0471 5.89212 17.0763 5.84119C17.1439 5.72317 17.2297 5.62351 17.2242 5.47457C17.2193 5.34644 17.132 5.24354 17.0561 5.1524C16.9133 4.98081 16.7403 4.84277 16.6064 4.66187C16.4889 4.87309 16.321 5.04322 16.1978 5.24982C16.1256 5.37088 16.0641 5.49353 16.112 5.63883C16.1522 5.76075 16.2486 5.82475 16.308 5.93049C16.335 5.97837 16.354 6.10796 16.2657 6.09785C16.1731 6.08735 16.139 5.96166 16.1091 5.88683C16.0155 5.65263 15.7851 5.59867 15.589 5.49617C15.593 5.69299 15.5602 5.88829 15.5638 6.08385C15.5649 6.14791 15.5719 6.32498 15.6322 6.3549C15.6872 6.38198 15.7479 6.39572 15.806 6.41329C15.8695 6.43231 15.9455 6.45087 15.9961 6.49941C16.0548 6.55582 15.9966 6.62655 15.9321 6.61361C15.8246 6.59194 15.7059 6.49479 15.5943 6.51275C15.6313 6.66235 15.6884 6.80257 15.7674 6.92303C14.6076 6.42689 13.3841 5.99337 12.3731 5.36824C12.3648 5.27267 12.3565 5.17703 12.3484 5.08146C12.2872 5.08589 12.2667 5.06733 12.2692 5.13179C12.2715 5.19037 12.2735 5.24922 12.2758 5.3078C12.2101 5.2658 12.146 5.22234 12.0825 5.17849C12.1275 5.13886 12.1754 5.10511 12.2347 5.09256C12.2898 5.08067 12.2656 5.02103 12.2639 4.96364C12.2569 4.72878 12.2498 4.49398 12.2427 4.25912C12.2401 4.17425 12.2466 4.07604 12.245 3.98146C12.2761 4.31169 12.307 4.64193 12.3382 4.97235C12.341 5.00247 12.3438 5.03239 12.3467 5.06251C12.3503 5.09969 12.3803 5.08014 12.4123 5.08576C12.4929 5.09969 12.5551 5.15101 12.6204 5.19936C12.699 5.25754 12.7388 5.27254 12.8261 5.22419C13.0617 5.09401 13.1662 4.84145 13.1981 4.57218C13.0972 4.57059 13.0157 4.67746 12.9193 4.69747C12.852 4.71141 12.8437 4.63142 12.8848 4.59318C12.9223 4.55824 12.9712 4.53698 13.0165 4.51617C13.0663 4.49312 13.1236 4.4741 13.1665 4.43738C13.1825 4.35251 13.1883 4.26784 13.1742 4.18211C13.15 4.03602 13.1149 3.89534 13.0997 3.74739C12.9405 3.86073 12.7505 3.9347 12.71 4.15807C12.7011 4.20655 12.6513 4.34967 12.58 4.31004C12.5257 4.27992 12.5512 4.19486 12.5749 4.15318C12.6302 4.05656 12.7004 3.97512 12.6958 3.85327C12.6919 3.74838 12.6204 3.66431 12.5583 3.58974C12.4416 3.44926 12.2999 3.33652 12.1905 3.18838C12.0943 3.36115 11.9572 3.50045 11.8563 3.66939C11.7972 3.7684 11.7469 3.86885 11.7861 3.98767C11.8191 4.08733 11.898 4.13984 11.9464 4.22616C11.9685 4.26539 11.984 4.37127 11.9117 4.36321C11.8359 4.35449 11.8081 4.25166 11.7836 4.19063C11.707 3.99883 11.5184 3.95478 11.3581 3.8711C11.3615 4.03218 11.3345 4.19182 11.3373 4.35192C11.3383 4.40422 11.3439 4.5492 11.3933 4.57363C11.4382 4.59582 11.488 4.60718 11.5354 4.62132C11.5874 4.63684 11.6495 4.65203 11.6908 4.69166C11.7387 4.73769 11.6913 4.79575 11.6385 4.78505C11.5827 4.77395 11.5232 4.73941 11.464 4.71834C10.9728 4.3214 10.5244 3.86548 10.3402 3.3558C10.0999 2.69045 10.561 1.90107 10.6107 1.18037C10.6184 1.06657 10.5973 1.06558 10.5633 1.1737C10.4411 1.56298 10.177 1.93482 9.92445 2.31419C9.86262 2.40698 9.77638 2.39965 9.7328 2.29563C9.61284 2.00925 9.5078 1.71779 9.43513 1.41728C9.40024 1.27297 9.37946 1.12581 9.35875 0.978465C9.34291 0.865658 9.21179 0.677162 9.18541 0.787459C9.16846 0.858591 9.17086 0.998676 9.21728 1.25916C9.26333 1.51727 9.29162 1.78 9.35499 2.03342C9.49511 2.59284 9.71924 3.12966 10.0229 3.63406C11.0871 5.40067 13.3071 6.93321 15.9351 7.62986C16.0385 7.65734 16.6683 7.9805 16.8544 8.09384C17.157 8.27712 17.4396 8.47499 17.6946 8.69043C18.7732 9.60617 19.2951 10.8279 19.3294 12.1209C19.3659 13.4929 18.9005 14.9247 18.6655 16.3246C18.6526 16.4012 18.6417 16.4774 18.6324 16.5528C18.6184 16.6658 18.5711 16.6757 18.5185 16.5764C18.036 15.6678 17.2758 14.8913 16.1778 14.3115C16.2899 14.134 16.402 13.9568 16.5141 13.7794C16.4335 13.7175 16.4255 13.6718 16.3668 13.7551C16.2936 13.859 16.2203 13.9627 16.1471 14.0665C16.1078 14.1224 16.0684 14.1781 16.0292 14.2337C15.6272 14.0336 15.182 13.8586 14.6901 13.7123C13.3932 13.327 11.9537 13.1001 10.6566 12.7245C10.568 12.5434 10.4794 12.3626 10.3907 12.1815C10.311 12.2236 10.274 12.211 10.3104 12.2959C10.3558 12.4018 10.4015 12.5079 10.4469 12.6138C10.455 12.6326 10.4632 12.6514 10.4713 12.6702C10.3289 12.6267 10.1891 12.5806 10.0511 12.5327C10.0522 12.5299 10.0533 12.5275 10.0545 12.5246C10.0992 12.4214 10.1541 12.328 10.2441 12.2637C10.3118 12.2153 10.2484 12.1493 10.2167 12.0736C10.086 11.7627 9.95546 11.4519 9.82471 11.1409C9.77737 11.0283 9.73514 10.8929 9.68441 10.767C9.89659 11.1918 10.1088 11.6164 10.321 12.0412C10.3402 12.0798 10.3597 12.1184 10.3789 12.1572C10.4029 12.2051 10.433 12.161 10.4789 12.1495C10.594 12.1206 10.7041 12.1524 10.8166 12.1785C10.9522 12.21 11.0133 12.2061 11.1055 12.09C11.3546 11.7759 11.3641 11.375 11.2682 10.9948C11.132 11.0524 11.0779 11.2442 10.9588 11.3281C10.8756 11.3866 10.8232 11.2842 10.8587 11.2086C10.8911 11.1395 10.9456 11.082 10.9956 11.0273C11.0507 10.9669 11.1175 10.9075 11.1561 10.8326C11.1339 10.7093 11.0981 10.5921 11.0348 10.4856C10.9271 10.3039 10.8076 10.136 10.7104 9.94664C10.5554 10.193 10.3386 10.4048 10.3997 10.7284C10.4129 10.7987 10.4199 11.0202 10.3039 11.0093C10.2154 11.001 10.2056 10.872 10.216 10.8021C10.2401 10.6398 10.2923 10.4889 10.2233 10.328C10.1639 10.1898 10.0245 10.1192 9.903 10.0559C9.67381 9.93673 9.42557 9.86923 9.20224 9.73562C9.16242 10.0244 9.05023 10.2925 9.00208 10.579C8.97397 10.747 8.95813 10.9115 9.07229 11.0477C9.1679 11.1619 9.30074 11.1855 9.41047 11.2726C9.46028 11.3123 9.53573 11.445 9.43463 11.477C9.32842 11.5103 9.23811 11.3889 9.17376 11.3214C8.97212 11.1096 8.69633 11.1622 8.43792 11.1448C8.52546 11.359 8.57187 11.589 8.65842 11.802C8.67254 11.8368 8.70009 11.9014 8.73369 11.958C8.09747 11.6249 7.48683 11.2195 7.2037 10.7068C6.85961 10.0832 7.2733 9.23089 7.2418 8.50854C7.23687 8.39455 7.21332 8.3964 7.18915 8.50749C7.1007 8.91473 6.8519 9.326 6.61766 9.74315C6.56274 9.84076 6.46978 9.84519 6.41035 9.75041C6.27905 9.54065 6.15836 9.3262 6.0559 9.10428C6.06084 9.10388 6.06571 9.10369 6.07082 9.10329C6.05122 8.87576 6.03162 8.64836 6.01177 8.42097C5.95062 8.42539 5.93009 8.40683 5.93256 8.47129C5.93558 8.55154 5.9386 8.63198 5.94156 8.71216C5.9431 8.75397 5.94476 8.79585 5.9463 8.83765C5.90593 8.72551 5.87141 8.61151 5.83898 8.49652C5.83596 8.48602 5.83091 8.47433 5.82579 8.46277C5.84878 8.45042 5.87159 8.43767 5.89804 8.43206C5.95315 8.42011 5.92892 8.36053 5.92726 8.30314C5.92029 8.06828 5.91314 7.83342 5.90611 7.59862C5.90346 7.51375 5.90993 7.41554 5.90839 7.32096C5.93952 7.6512 5.97047 7.98143 6.0016 8.31186C6.00443 8.34197 6.00727 8.37189 6.0101 8.40201C6.01368 8.43919 6.0437 8.41958 6.07575 8.42526C6.15632 8.43919 6.21852 8.49051 6.2838 8.53886C6.36246 8.59704 6.40228 8.61197 6.48963 8.56369C6.72523 8.43351 6.82971 8.18089 6.86158 7.91168C6.76067 7.9101 6.67918 8.01696 6.58277 8.03697C6.51546 8.05091 6.50713 7.97093 6.54825 7.93268C6.58579 7.89768 6.63461 7.87648 6.67992 7.85567C6.72973 7.83262 6.78706 7.8136 6.8299 7.77688C6.84592 7.69201 6.85178 7.60734 6.8376 7.52161C6.81344 7.37552 6.77836 7.23484 6.76314 7.08683C6.60391 7.20023 6.41399 7.2742 6.37343 7.4975C6.36455 7.54598 6.31474 7.68911 6.24349 7.64948C6.18918 7.61936 6.21464 7.53423 6.23837 7.49262C6.2936 7.39606 6.36381 7.31456 6.35925 7.1927C6.35531 7.08782 6.2838 7.00374 6.22191 6.92918C6.10516 6.78876 5.9635 6.67595 5.85408 6.52781C5.75786 6.70059 5.6207 6.83988 5.51986 7.00883C5.4608 7.10783 5.41044 7.20829 5.44964 7.32711C5.48268 7.42677 5.56153 7.47928 5.60998 7.5656C5.63205 7.60476 5.64752 7.7107 5.57527 7.70265C5.49945 7.69393 5.47171 7.59109 5.44718 7.53007C5.37062 7.33827 5.18199 7.29421 5.02165 7.21053C5.02504 7.37162 4.99804 7.53125 5.00088 7.69135C5.00187 7.74366 5.00748 7.88857 5.05691 7.91307C5.10179 7.93526 5.1516 7.94662 5.19894 7.96075C5.25097 7.97634 5.31304 7.99147 5.35434 8.03109C5.40224 8.07719 5.35471 8.13518 5.30207 8.12448C5.21417 8.10691 5.1172 8.02726 5.02572 8.04199C5.09365 8.31661 5.23889 8.55814 5.50444 8.64625C5.57046 8.66824 5.61479 8.63978 5.65855 8.59856C5.67285 8.65536 5.69159 8.72022 5.71644 8.79664C5.79793 9.04583 5.86037 9.30189 5.96048 9.54362C6.18153 10.0774 6.49259 10.5759 6.88704 11.0305C8.27272 12.6259 10.909 13.8132 13.8942 14.1048C14.0002 14.1152 14.0047 14.1535 13.9019 14.183C13.2892 14.3595 12.4904 14.3585 11.9415 14.3161C11.8353 14.3079 11.8204 14.352 11.9132 14.4076C12.3512 14.6695 13.0041 14.8464 13.7371 14.6976C13.9776 14.6499 14.1723 14.5291 14.3722 14.4102C14.6751 14.2301 14.7232 14.34 14.9418 14.4243C15.2968 14.5605 15.6316 14.7141 15.938 14.8893C16.5418 15.2366 17.0189 15.6682 17.3776 16.1588C17.3744 16.1572 17.3719 16.1545 17.3687 16.1527C17.1673 16.0474 16.9621 15.9627 16.7666 15.8433C16.7536 16.1743 16.663 16.5114 16.8975 16.7806C16.9485 16.8392 17.0758 17.0452 16.9596 17.1076C16.8709 17.1551 16.7913 17.0387 16.7632 16.9655C16.6978 16.796 16.6651 16.6199 16.5118 16.5104C16.3799 16.4162 16.2088 16.4364 16.0591 16.4524C15.7763 16.4825 15.5035 16.5737 15.2186 16.5864C15.3381 16.8857 15.3776 17.2109 15.4881 17.5132C15.553 17.6903 15.6276 17.8566 15.8103 17.9149C15.9635 17.9635 16.1027 17.9029 16.2544 17.917C16.3232 17.9235 16.4675 18.0025 16.3887 18.0959C16.3061 18.1939 16.1538 18.1351 16.056 18.1112C15.7489 18.0361 15.5154 18.2588 15.2604 18.4037C15.4603 18.5525 15.6299 18.7422 15.8281 18.8906C15.8932 18.9391 16.0754 19.0693 16.1523 19.0232C16.2223 18.9812 16.2833 18.9224 16.3459 18.8694C16.4144 18.8114 16.4921 18.7384 16.58 18.7182C16.682 18.6948 16.7075 18.8167 16.6442 18.8805C16.539 18.987 16.3494 19.0474 16.2802 19.1898C16.6804 19.3559 17.1137 19.3823 17.4742 19.0934C17.6004 18.9923 17.5659 18.8583 17.5491 18.7043C17.5354 18.5782 17.5367 18.4551 17.587 18.3377C17.6249 18.2491 17.5289 18.2261 17.4573 18.174C17.1636 17.9604 16.8701 17.7465 16.5764 17.5329C16.4702 17.4554 16.3561 17.3534 16.2391 17.2652C16.6724 17.5363 17.1055 17.8071 17.5388 18.0781C17.5781 18.1028 17.6176 18.1274 17.657 18.152C17.7058 18.1826 17.7106 18.1217 17.7477 18.0821C17.8413 17.9824 17.9633 17.9439 18.0844 17.8984C18.0971 17.8938 18.108 17.8891 18.1193 17.8845C18.1293 17.938 18.1398 17.9915 18.148 18.0457C18.1702 18.1934 18.1838 18.3434 18.1942 18.494C18.0233 18.3852 17.8526 18.2763 17.6817 18.1676C17.6289 18.2575 17.5868 18.2686 17.6677 18.3267C17.7688 18.3988 17.8697 18.4712 17.9708 18.5433C18.0495 18.5995 18.1279 18.6556 18.2066 18.7118C18.2149 18.9546 18.2113 19.2001 18.1987 19.4479C18.1928 19.5617 18.1044 19.6248 18.0012 19.5971C17.9252 19.5767 17.8469 19.5593 17.766 19.5452C17.6609 19.527 17.6583 19.5434 17.7579 19.584C17.8104 19.6054 17.8607 19.6284 17.909 19.6531C18.0052 19.702 17.9969 19.7222 17.8967 19.6834C17.7628 19.6315 17.6336 19.5743 17.5129 19.5072C17.4184 19.4546 17.4112 19.4647 17.4915 19.5397C17.6581 19.6949 17.8266 19.8493 17.9976 20.0027C18.0793 20.0758 18.1368 20.2267 18.1247 20.34C18.0964 20.6052 18.0646 20.8712 18.0336 21.1369C18.014 21.1142 17.9968 21.0896 17.9744 21.0692C17.8244 20.9326 17.6671 20.8123 17.5251 20.665C17.4464 20.9437 17.3008 21.2093 17.4453 21.4934C17.4766 21.5553 17.543 21.7604 17.4315 21.7863C17.3464 21.8059 17.3025 21.6883 17.2932 21.6196C17.2721 21.4601 17.2802 21.3024 17.1722 21.1733C17.0792 21.0624 16.9296 21.0396 16.7987 21.0179C16.552 20.9773 16.3013 20.991 16.056 20.9352C16.0968 21.218 16.0639 21.5037 16.0964 21.7869C16.1155 21.9529 16.1451 22.1119 16.2886 22.204C16.409 22.2813 16.5399 22.2622 16.6661 22.3097C16.7234 22.3314 16.83 22.4324 16.744 22.4935C16.6536 22.5575 16.5361 22.4718 16.4577 22.4286C16.2117 22.2927 15.9676 22.4275 15.7211 22.4912C15.8609 22.6647 15.9665 22.8657 16.1049 23.0383C16.1504 23.0949 16.279 23.2483 16.3537 23.2268C16.4218 23.2074 16.4858 23.1716 16.5497 23.1411C16.6199 23.1078 16.7008 23.0639 16.7796 23.0674C16.8711 23.0714 16.8681 23.181 16.8013 23.2206C16.69 23.2866 16.5165 23.2935 16.4286 23.3984C16.7355 23.6334 17.0986 23.7573 17.4644 23.5958C17.5923 23.5394 17.5902 23.4174 17.6074 23.2821C17.6214 23.1716 17.6476 23.0671 17.7143 22.979C17.7647 22.9125 17.6875 22.8705 17.6372 22.8094C17.4308 22.5588 17.2247 22.3082 17.0183 22.0576C16.9436 21.9671 16.8674 21.8533 16.7859 21.751C17.0992 22.0829 17.4127 22.4149 17.726 22.7467C17.7545 22.7769 17.783 22.8072 17.8115 22.8373C17.8467 22.8747 17.8631 22.824 17.9029 22.7991C17.9049 22.7979 17.9067 22.7975 17.9086 22.7965C17.9099 22.8478 17.9127 22.8983 17.9156 22.9491C17.8869 22.9181 17.8582 22.8872 17.8294 22.8563C17.766 22.9205 17.7279 22.9203 17.7851 22.9885C17.8339 23.0467 17.8826 23.1052 17.9315 23.1633C18.0201 24.0952 18.3518 24.9234 18.8114 25.7294C18.8669 25.8269 18.9065 25.9493 18.8986 26.0047C18.8906 26.0601 18.8103 26.0575 18.7155 26.0061C18.332 25.7987 17.8566 25.6488 17.2919 25.6439C17.1855 25.6429 17.1847 25.6581 17.2893 25.6797C17.9572 25.8184 18.3757 26.1983 18.696 26.6253C18.7628 26.7143 18.8064 26.8814 18.8011 26.9954C18.7632 27.8046 18.8392 28.5969 19.099 29.3414C19.1547 29.5013 18.5714 33.7547 18.2658 35.3313H13.7948C13.4302 35.3313 13.1346 35.648 13.1346 36.0386C13.1346 36.4293 13.4302 36.746 13.7948 36.746H28.0783C28.4429 36.746 28.7385 36.4293 28.7385 36.0386C28.7385 35.648 28.4429 35.3313 28.0783 35.3313H23.6175C23.476 34.4837 23.2563 32.7296 23.3185 30.2616C23.3451 29.928 23.3721 29.595 23.4049 29.2641C23.4352 28.961 23.3814 28.4703 23.5893 28.2736C23.7219 28.1486 23.8416 28.013 23.9592 27.8763C24.4671 27.2868 25.0012 26.4372 26.0477 26.3809C26.1542 26.3753 26.1564 26.3587 26.0511 26.3413C25.4323 26.239 24.8935 26.3716 24.472 26.5826C24.3756 26.6309 24.3586 26.6083 24.4295 26.5231C25.281 25.4993 25.932 24.4199 26.1087 22.9805C26.1203 22.8865 26.1307 22.792 26.1408 22.6971C26.1453 22.6929 26.1499 22.6885 26.1546 22.6843C26.1499 22.6784 26.1477 22.6744 26.1437 22.6687C26.1491 22.6162 26.1543 22.5636 26.1591 22.5108C26.1773 22.4927 26.1961 22.4727 26.2166 22.4555C26.4938 22.2232 26.7708 21.9912 27.048 21.759C27.1481 21.6749 27.2727 21.5907 27.3856 21.4991C27.0158 21.855 26.6462 22.2108 26.2765 22.5668C26.2429 22.5991 26.2092 22.6314 26.1756 22.664C26.1338 22.704 26.1861 22.7273 26.2097 22.777C26.2692 22.9017 26.2661 23.037 26.2697 23.1731C26.2738 23.3374 26.2936 23.4068 26.4346 23.4821C26.8148 23.6859 27.2191 23.5915 27.5746 23.3807C27.4811 23.239 27.2747 23.2273 27.159 23.1127C27.0786 23.0325 27.1674 22.9452 27.2525 22.966C27.3304 22.9849 27.4023 23.0327 27.4702 23.0757C27.5451 23.1232 27.6224 23.1844 27.7075 23.2091C27.8252 23.1511 27.9331 23.0789 28.0233 22.9783C28.177 22.8065 28.3136 22.6248 28.4778 22.4631C28.1901 22.3497 27.9208 22.1563 27.6127 22.3116C27.5458 22.3453 27.3258 22.4116 27.3061 22.2752C27.2911 22.1713 27.4177 22.126 27.4905 22.1196C27.6595 22.1046 27.8246 22.125 27.9674 22.0031C28.0902 21.8985 28.1243 21.7194 28.1557 21.5629C28.2147 21.2679 28.217 20.9647 28.2922 20.6727C27.9923 20.703 27.6942 20.6444 27.3946 20.6646C27.2189 20.6765 27.0499 20.7016 26.9436 20.8687C26.8544 21.0088 26.8657 21.1678 26.8072 21.317C26.7806 21.3847 26.6674 21.5065 26.6089 21.3986C26.5476 21.2854 26.6455 21.1492 26.6963 21.0577C26.8554 20.7699 26.73 20.4665 26.6795 20.1649C26.5712 20.2539 26.4547 20.3291 26.339 20.4057C26.4042 19.8356 26.4996 19.2798 26.6698 18.7595C27.0695 17.5391 27.9136 16.5453 29.201 16.0243C29.5052 15.9022 29.8304 15.8058 30.1706 15.7297C30.2908 15.7026 30.569 15.6573 30.8049 15.625C31.0137 15.7737 31.2224 15.9224 31.4313 16.0712C31.4823 15.9934 31.5205 15.9853 31.4505 15.9295C31.3632 15.86 31.2756 15.7905 31.1884 15.7209C31.1362 15.6795 31.0843 15.6383 31.0323 15.5969C31.1016 15.5896 31.1545 15.5856 31.1781 15.5874C31.3102 15.5969 31.4416 15.6022 31.5729 15.6072C31.5789 15.7172 31.5719 15.8238 31.5233 15.9235C31.4856 16.0009 31.5706 16.0262 31.6324 16.0763C31.8863 16.2818 32.1402 16.4871 32.3943 16.6927C32.4861 16.767 32.5839 16.8639 32.6848 16.9483C32.3084 16.685 31.932 16.4215 31.5555 16.1582C31.5212 16.1341 31.487 16.1102 31.4527 16.0862C31.4103 16.0565 31.4034 16.1109 31.3685 16.1444C31.2805 16.2291 31.1696 16.2578 31.0595 16.2928C30.9262 16.335 30.8744 16.3696 30.8455 16.5191C30.7677 16.9227 30.9391 17.2794 31.1937 17.5634C31.2874 17.4427 31.2489 17.2467 31.3157 17.1119C31.3624 17.0177 31.4543 17.0808 31.4572 17.165C31.4598 17.2424 31.4376 17.3208 31.4183 17.3944C31.397 17.4757 31.3651 17.5624 31.3647 17.6478C31.4395 17.7444 31.5235 17.8289 31.6266 17.8898C31.8025 17.9937 31.9827 18.0793 32.1526 18.1958C32.1781 17.8999 32.2733 17.6026 32.0749 17.3502C32.0317 17.2952 31.9265 17.1046 32.033 17.0545C32.1142 17.0163 32.1807 17.1244 32.203 17.1911C32.2544 17.3459 32.2763 17.5054 32.4089 17.6109C32.5231 17.7016 32.677 17.6917 32.8119 17.6846C33.0663 17.6713 33.3141 17.6028 33.5701 17.6052C33.4756 17.3313 33.4539 17.0384 33.3678 16.7624C33.3172 16.6007 33.2572 16.4482 33.0962 16.3873C32.9611 16.3364 32.8339 16.3838 32.6987 16.364C32.6372 16.3549 32.5117 16.2773 32.5859 16.1973C32.6641 16.1135 32.7979 16.1735 32.8845 16.1998C33.1564 16.2818 33.3748 16.0938 33.6091 15.9763C33.4547 15.8487 33.3228 15.6945 33.1744 15.5614C35.0972 15.3712 36.8107 14.7073 37.9445 13.7072C38.3768 13.3257 38.7428 12.8873 39.035 12.4001C39.1673 12.1794 39.2688 11.9385 39.3859 11.7075C39.504 11.4745 39.5463 11.3419 39.5503 11.2686C39.5566 11.1548 39.378 11.2916 39.3309 11.3938C39.2692 11.5275 39.2077 11.6608 39.1336 11.787C38.9791 12.0495 38.7963 12.293 38.6007 12.5266C38.5295 12.6115 38.4454 12.5905 38.4128 12.482C38.2798 12.0381 38.1338 11.598 38.1277 11.1871C38.1261 11.0731 38.1055 11.0673 38.0807 11.1783C37.9235 11.881 38.1386 12.7833 37.7209 13.3387C37.2912 13.9097 36.4361 14.2336 35.6683 14.4723C34.1211 14.9531 32.2253 14.839 30.5222 15.0726C29.4058 15.2258 28.5029 15.5879 27.777 16.1039C27.744 16.0564 27.711 16.0087 27.6781 15.9612C27.6344 15.8981 27.5905 15.8349 27.5468 15.7719C27.5117 15.7211 27.5067 15.7488 27.4576 15.7856C27.5359 15.9117 27.6142 16.038 27.6924 16.1641C26.3574 17.154 25.6515 18.6879 25.3975 20.4592C25.3812 20.572 25.3184 20.5896 25.2477 20.5043C25.1458 20.3814 25.0319 20.264 24.9128 20.1484C24.834 20.0718 24.8037 19.9268 24.8429 19.8208C24.9911 19.419 25.0992 18.99 25.1565 18.5224C25.3301 17.1121 25.2932 15.5968 25.7171 14.3015C26.1168 13.0811 26.9608 12.0873 28.2483 11.5663C28.5524 11.4442 28.8776 11.3478 29.2179 11.2719C29.4275 11.2246 29.4901 11.1247 29.7272 11.3501C29.8838 11.4988 30.0353 11.6488 30.2409 11.7344C30.8613 11.9968 31.4688 11.9323 31.9045 11.75C32.0037 11.7086 31.9941 11.6599 31.8881 11.6494C31.3985 11.6011 30.7086 11.4749 30.2029 11.2122C30.1071 11.1625 30.1194 11.1219 30.2255 11.1294C31.1037 11.1921 31.9651 11.1549 32.7808 11.0324C32.9626 11.1619 33.1445 11.2913 33.3264 11.4208C33.3776 11.343 33.4156 11.3349 33.3456 11.2791C33.2582 11.2096 33.1707 11.1401 33.0834 11.0705C33.0531 11.0463 33.0227 11.0223 32.9922 10.998C33.1517 10.9709 33.3092 10.9404 33.4648 10.9067C33.4658 10.9198 33.4669 10.9332 33.4676 10.9467C33.4748 11.0603 33.4685 11.1704 33.4182 11.2731C33.3806 11.3505 33.4656 11.3757 33.5274 11.4259C33.7813 11.6314 34.0352 11.8368 34.2893 12.0423C34.3811 12.1167 34.4789 12.2137 34.5799 12.2982C34.2034 12.0348 33.8269 11.7713 33.4506 11.508C33.4163 11.4839 33.3822 11.4601 33.3479 11.436C33.3054 11.4063 33.2987 11.4607 33.2635 11.4942C33.1756 11.5789 33.0645 11.6076 32.9543 11.6426C32.8212 11.6848 32.7693 11.7194 32.7405 11.8689C32.6627 12.2725 32.834 12.6292 33.0886 12.9132C33.1824 12.7925 33.1439 12.5965 33.2107 12.4617C33.2574 12.3675 33.3493 12.4306 33.3522 12.5148C33.3548 12.5923 33.3326 12.6707 33.3133 12.7442C33.2919 12.8255 33.2601 12.9122 33.2597 12.9976C33.3343 13.0943 33.4185 13.1787 33.5216 13.2396C33.6975 13.3435 33.8777 13.4291 34.0476 13.5456C34.0731 13.2497 34.1683 12.9524 33.9699 12.7C33.9267 12.645 33.8214 12.4544 33.928 12.4043C34.0092 12.3661 34.0757 12.4742 34.0979 12.5409C34.1494 12.6957 34.1713 12.8552 34.3039 12.9607C34.418 13.0514 34.572 13.0415 34.7068 13.0344C34.9612 13.0211 35.2091 12.9526 35.4651 12.955C35.3706 12.6812 35.3489 12.3882 35.2627 12.1122C35.2122 11.9505 35.1522 11.798 34.9911 11.7372C34.8561 11.6862 34.7289 11.7337 34.5937 11.7139C34.5322 11.7048 34.4066 11.6272 34.4809 11.5472C34.5589 11.4633 34.6929 11.5234 34.7795 11.5496C35.0514 11.6317 35.2698 11.4437 35.5041 11.3261C35.3313 11.1834 35.1875 11.0052 35.0161 10.8629C34.9599 10.8164 34.8021 10.6911 34.7314 10.7287C34.6671 10.7628 34.6099 10.8128 34.5516 10.857C34.4879 10.9058 34.4153 10.9672 34.3359 10.9811C34.2436 10.9971 34.226 10.8869 34.2852 10.8328C34.3808 10.7453 34.5432 10.699 34.6152 10.584C35.5444 10.2592 36.3593 9.80774 36.992 9.24971C37.4244 8.86817 37.7902 8.42975 38.0827 7.94253C38.1437 7.84048 38.1981 7.73395 38.2508 7.62643C38.2639 7.63211 38.2774 7.63772 38.2907 7.6432C38.3284 7.53225 38.3662 7.42155 38.4041 7.31053C38.4141 7.29032 38.4236 7.26991 38.4338 7.2499C38.5171 7.08557 38.5612 6.97323 38.5823 6.89444C38.5939 6.89946 38.6072 6.90434 38.6196 6.91366C38.7 6.97283 38.7427 7.06239 38.7902 7.1503C38.8473 7.25644 38.8834 7.29421 39.0007 7.28999C39.3172 7.27869 39.5505 7.06299 39.7136 6.78955C39.6054 6.73236 39.4663 6.80329 39.3527 6.77218C39.2732 6.75032 39.3026 6.65938 39.3651 6.64062C39.4224 6.62345 39.4852 6.62728 39.5439 6.62972C39.6088 6.63236 39.6795 6.64287 39.7435 6.62688C39.8012 6.54406 39.8479 6.45569 39.8736 6.3555C39.9172 6.1845 39.9466 6.01331 40.0005 5.84516C39.7741 5.87996 39.5334 5.85572 39.3832 6.0748ZM9.28607 12.205C9.27325 12.2077 9.25963 12.2094 9.24588 12.211C9.23435 12.2058 9.22252 12.2009 9.21099 12.1954C9.12025 12.1524 9.0284 12.1079 8.93649 12.062C8.97891 12.0578 9.02119 12.0517 9.06305 12.0464C9.14078 12.0365 9.23207 12.02 9.30808 12.0487C9.39623 12.082 9.36226 12.188 9.28607 12.205ZM17.756 17.0014C17.7089 17.1092 17.6032 17.0445 17.5957 16.9505C17.5887 16.8644 17.6093 16.7759 17.627 16.6927C17.6344 16.6577 17.6432 16.6215 17.6516 16.5852C17.7012 16.6737 17.7478 16.7636 17.7906 16.855C17.7845 16.9068 17.7755 16.9567 17.756 17.0014ZM19.2007 20.1021C19.2079 20.1203 19.2084 20.1395 19.2017 20.1448C19.1949 20.1501 19.1868 20.1357 19.1864 20.112C19.1862 20.0886 19.1936 20.0841 19.2007 20.1021ZM19.4575 23.1916C19.4316 23.326 19.4046 23.4604 19.3771 23.595C19.3543 23.7064 19.2998 23.7124 19.2632 23.6053C19.1057 23.1437 19.0536 22.6455 19.0498 22.1372C19.0481 21.9302 19.0215 21.7109 19.0845 21.4863C19.1153 21.3771 19.195 21.3818 19.2379 21.4863C19.2664 21.5556 19.2945 21.6232 19.3231 21.689C19.3967 21.8575 19.4719 22.0257 19.5629 22.1881C19.7051 22.4431 19.5147 22.8932 19.4575 23.1916ZM32.512 15.6059C32.4887 15.6176 32.4649 15.6273 32.4404 15.6318C32.4088 15.6373 32.3868 15.6273 32.3728 15.6108C32.4191 15.6093 32.4657 15.6077 32.512 15.6059ZM25.1341 22.6236C25.0156 23.2474 24.8339 23.8446 24.495 24.3434C23.9355 25.1678 22.9869 25.6959 22.4072 26.5C22.3421 26.5904 22.3027 26.5755 22.3122 26.4617C22.3582 25.9097 22.398 25.3549 22.4523 24.8064C22.4827 24.5033 22.4289 24.0125 22.6368 23.8159C22.7693 23.6908 22.889 23.5552 23.0066 23.4186C23.5024 22.8432 24.0244 22.0224 25.0219 21.9311C25.128 21.9214 25.2268 22.0152 25.2199 22.129C25.209 22.3024 25.1642 22.4655 25.1341 22.6236ZM25.1718 21.7302C25.182 21.7599 25.19 21.7893 25.1964 21.8181C25.2074 21.8675 25.1278 21.8897 25.0222 21.8753C24.4358 21.7957 23.9239 21.9236 23.5198 22.1251C23.4233 22.1732 23.4063 22.1505 23.4772 22.0655C23.8418 21.6269 24.1695 21.178 24.439 20.6953C24.4938 20.5975 24.575 20.598 24.6246 20.6983C24.6545 20.7585 24.6846 20.8187 24.7158 20.8792C24.8615 21.1615 25.0758 21.4481 25.1718 21.7302Z" fill="#AA937E"/>
<path d="M15.9101 12.6282C15.8169 12.5092 15.772 12.303 15.6434 12.2207C15.4649 12.6391 15.4149 13.1009 15.663 13.5035C15.7495 13.6444 15.8765 13.6152 16.0212 13.6064C16.1394 13.5991 16.2541 13.6076 16.3605 13.6684C16.4409 13.714 16.4679 13.6129 16.5207 13.5392C16.7371 13.2377 16.9534 12.9363 17.17 12.6346C17.2483 12.5255 17.3501 12.4097 17.4392 12.2896C17.1613 12.7371 16.8835 13.1843 16.6055 13.6318C16.5802 13.6726 16.5549 13.7132 16.5296 13.7539C16.4983 13.8042 16.5547 13.8129 16.5894 13.8551C16.6768 13.961 16.7056 14.094 16.7409 14.2262C16.7835 14.3857 16.8192 14.4481 16.9744 14.4839C17.3939 14.5807 17.7668 14.3794 18.065 14.0779C17.9404 13.9647 17.7359 14.0087 17.5961 13.9277C17.4986 13.8709 17.565 13.7618 17.6529 13.7591C17.7335 13.7567 17.815 13.784 17.8913 13.8078C17.9757 13.8341 18.0656 13.8731 18.1546 13.8743C18.2559 13.7858 18.3446 13.6864 18.4091 13.5637C18.519 13.3545 18.61 13.1399 18.7328 12.9378C18.4251 12.9044 18.1163 12.7878 17.8517 13.0227C17.7941 13.0736 17.5946 13.1977 17.5433 13.0698C17.5045 12.9721 17.6174 12.8939 17.6872 12.868C17.8489 12.808 18.015 12.7834 18.1262 12.6259C18.2216 12.4905 18.213 12.3064 18.2069 12.1451C18.1954 11.841 18.1266 11.5438 18.1317 11.2383C17.8457 11.3487 17.5405 11.3717 17.2523 11.4722C17.0834 11.5312 16.924 11.6011 16.8592 11.7931C16.8049 11.954 16.8531 12.1065 16.8311 12.2678C16.8208 12.3412 16.739 12.4907 16.6564 12.401C16.5698 12.3069 16.6337 12.1474 16.6617 12.0443C16.7498 11.7202 16.556 11.4574 16.4359 11.1763C16.2856 11.3814 16.0988 11.5516 15.9491 11.7549C15.9 11.8216 15.7682 12.0089 15.8066 12.0939C15.8415 12.1711 15.8928 12.2397 15.9385 12.3099C15.9886 12.3865 16.0518 12.474 16.0656 12.5692C16.0808 12.6796 15.966 12.6998 15.9101 12.6282Z" fill="#AA937E"/>
</g>
<line y1="43.5" x2="160" y2="43.5" stroke="#AA937E"/>
<defs>
<clipPath id="clip0_1_62">
<rect width="35" height="37.5" fill="white" transform="translate(5)"/>
</clipPath>
</defs>
</svg>
