<svg width="100" height="100" viewBox="0 0 21 20" fill="none" xmlns="http://www.w3.org/2000/svg">
<path d="M20.6252 18.5775L14.9377 12.89C16.0394 11.5292 16.7027 9.80006 16.7027 7.91675C16.7027 3.5518 13.1511 0.000152588 8.78612 0.000152588C4.42117 0.000152588 0.869568 3.55176 0.869568 7.91672C0.869568 12.2817 4.42121 15.8333 8.78616 15.8333C10.6695 15.8333 12.3986 15.17 13.7594 14.0683L19.4469 19.7558C19.6094 19.9183 19.8227 20 20.036 20C20.2494 20 20.4627 19.9183 20.6252 19.7558C20.951 19.43 20.951 18.9033 20.6252 18.5775ZM8.78616 14.1667C5.33952 14.1667 2.53623 11.3634 2.53623 7.91672C2.53623 4.47007 5.33952 1.66678 8.78616 1.66678C12.2328 1.66678 15.0361 4.47007 15.0361 7.91672C15.0361 11.3634 12.2328 14.1667 8.78616 14.1667Z" fill="#885809"/>
</svg>
